PathFileType	4	(X/Y/Z)	s11c0403.trc
DataRate	CameraRate	NumFrames	NumMarkers	Units	OrigDataRate	OrigDataStartFrame	OrigNumFrames
200	200	6	48	mm	200	500	2000
Frame#	Time	racr			lacr			c7			jug			rlel			rdr			llel			ldr			s2			lic			ric			lasi			rasi			rpsi			lpsi			rgt			lgt			rth1			rth2			rth3			rth4			rlfc			rmfc			rsh1			rsh2			rsh3			rsh4			rlmal			rcal			rtoe			rmt5			lth1			lth2			lth4			lth3			llfc			lmfc			llmal			lcal			lmt5			lsh1			lsh2			lsh3			lsh4			ltoe			SBIKE			LBIKE			RBIKE			
		X1	Y1	Z1	X2	Y2	Z2	X3	Y3	Z3	X4	Y4	Z4	X5	Y5	Z5	X6	Y6	Z6	X7	Y7	Z7	X8	Y8	Z8	X9	Y9	Z9	X10	Y10	Z10	X11	Y11	Z11	X12	Y12	Z12	X13	Y13	Z13	X14	Y14	Z14	X15	Y15	Z15	X16	Y16	Z16	X17	Y17	Z17	X18	Y18	Z18	X19	Y19	Z19	X20	Y20	Z20	X21	Y21	Z21	X22	Y22	Z22	X23	Y23	Z23	X24	Y24	Z24	X25	Y25	Z25	X26	Y26	Z26	X27	Y27	Z27	X28	Y28	Z28	X29	Y29	Z29	X30	Y30	Z30	X31	Y31	Z31	X32	Y32	Z32	X33	Y33	Z33	X34	Y34	Z34	X35	Y35	Z35	X36	Y36	Z36	X37	Y37	Z37	X38	Y38	Z38	X39	Y39	Z39	X40	Y40	Z40	X41	Y41	Z41	X42	Y42	Z42	X43	Y43	Z43	X44	Y44	Z44	X45	Y45	Z45	X46	Y46	Z46	X47	Y47	Z47	X48	Y48	Z48	
500	2.5000	660.092675	1410.171432	-10.866230	703.726608	1448.185680	-336.796258	627.566255	1582.114810	-172.900826	627.369186	1395.225567	-190.530088	572.608678	1141.135107	67.808252	753.863211	978.914523	-67.387441	597.993100	1210.900058	-528.118334	769.265348	951.378992	-464.472924	60.879464	1411.928575	-249.440016	271.496826	1385.357870	-446.399011	268.749223	1365.607553	-46.658110	287.727347	1312.164693	-416.424624	288.061092	1293.525223	-86.103396	116.519499	1481.901224	-217.609798	114.144910	1472.558071	-290.181551	201.821839	1244.471950	-36.879525	134.856921	1263.355501	-459.868518	280.686420	1120.478970	-43.924984	344.326832	1059.609688	-60.064149	367.708709	976.975690	-79.987292	373.563670	1079.460666	-72.106928	421.265592	883.697063	-103.501999	405.025566	863.632268	-227.359917	377.768667	725.330394	-83.276441	375.138338	638.562392	-101.886076	333.422064	562.380989	-98.138952	396.037388	635.915590	-134.826509	287.639873	431.166614	-107.549984	223.098919	404.632512	-151.653702	510.705752	392.820786	-149.299368	443.574217	361.664961	-78.848956	180.339846	1118.219229	-477.452713	224.666757	1046.004077	-474.424392	260.461167	1055.181495	-471.866879	226.718742	956.323857	-468.277667	261.879036	812.934168	-445.493965	281.478115	804.116228	-318.937170	27.490384	446.405253	-424.962690	-37.023139	438.184930	-385.193672	102.814536	284.311146	-451.370126	191.625387	704.372569	-467.840947	169.416045	623.291684	-453.334171	107.737105	559.993289	-448.830697	197.460047	611.090581	-429.566726	196.363448	251.656252	-387.258351	-177.559709	971.500936	-170.803924	-18.041881	81.353690	-460.783382	-18.052914	81.102201	-61.910009	
501	2.5050	661.040025	1408.601048	-11.119913	704.164647	1447.526295	-336.986364	628.920524	1581.243150	-172.721387	628.266118	1394.129351	-190.737619	572.277482	1140.263594	67.894034	753.747477	978.864518	-67.275217	597.497761	1210.814516	-528.311005	769.036976	951.254226	-465.162018	62.553889	1411.440309	-248.364838	272.664562	1385.709443	-445.626037	270.538257	1364.089810	-45.966858	289.131110	1312.000840	-415.998983	289.902331	1291.975841	-85.418511	118.162179	1481.534465	-216.387816	115.832301	1472.367124	-288.917616	202.749879	1243.029390	-36.526266	136.597430	1263.953012	-459.406114	280.545979	1118.242233	-43.468301	343.556615	1056.704883	-59.868692	366.029534	973.907876	-79.854331	372.900501	1076.318330	-71.973814	418.738177	880.426442	-103.700459	401.730438	860.324236	-227.456924	376.079277	721.696123	-83.308092	374.965843	635.385738	-101.004136	332.993098	558.317959	-98.100132	395.100047	632.467836	-134.776085	288.081805	426.562313	-107.430770	223.673946	400.069474	-151.491750	511.203241	388.901486	-149.421601	444.285259	357.402161	-78.860986	184.578075	1118.950121	-476.734378	230.131695	1047.458149	-473.763148	265.747304	1057.171071	-470.976277	233.634285	957.799104	-468.203173	270.302881	814.264030	-445.402813	289.020470	805.561212	-318.675551	29.937895	451.637372	-425.104514	-34.818619	444.149576	-385.323215	102.718565	288.049261	-451.156237	198.929823	706.242845	-467.797388	175.210397	625.644334	-452.885477	112.498414	563.406016	-448.828469	202.676795	612.333167	-428.855026	195.609771	253.844685	-387.069341	-177.233086	972.097033	-169.557911	-18.038953	81.433556	-460.734955	-18.044944	81.097744	-61.893545	
502	2.5100	661.972498	1407.099822	-11.389295	704.508873	1446.908179	-337.274423	630.233089	1580.349668	-172.333269	629.121365	1393.271881	-190.851322	571.925565	1139.465653	67.903020	753.690842	978.814170	-67.122739	597.021592	1210.794332	-528.556944	768.834668	951.144821	-465.889763	64.137661	1410.652827	-247.228438	273.838229	1385.784468	-444.869497	272.309193	1362.359238	-45.325794	290.603015	1311.528243	-415.480675	291.765757	1290.214052	-84.768451	119.871890	1480.719257	-216.059174	117.220175	1471.723260	-287.328758	203.775036	1241.314712	-36.246684	138.439138	1264.248011	-458.916402	280.488039	1115.757318	-43.047298	342.850986	1053.694231	-59.643073	364.513635	970.673026	-79.733498	372.407036	1072.959818	-71.803956	416.553207	876.825946	-104.177967	399.808321	857.402960	-229.619125	374.649213	717.798158	-83.329056	374.069532	631.461192	-100.916556	332.668756	554.142778	-98.086302	394.066018	628.809825	-134.874066	288.558444	421.991652	-107.425772	224.105261	395.314189	-151.476485	511.763843	384.722437	-149.530978	444.841221	353.118624	-78.851895	188.928517	1119.443438	-476.056352	235.685757	1048.715282	-473.179672	271.101995	1059.042975	-470.051205	240.621209	959.059448	-468.245532	278.813002	815.473173	-445.359106	296.809601	806.875614	-318.706304	32.708118	456.638820	-425.184296	-32.601766	449.967905	-385.515689	102.760863	291.846285	-450.973065	206.289638	708.132040	-467.720835	181.174468	627.920427	-452.843585	117.390282	566.771301	-448.831387	208.163836	614.419610	-428.348050	195.081594	256.241539	-386.926318	-177.179505	971.775909	-170.299366	-18.040279	81.391877	-460.778701	-18.046559	81.097103	-61.904158	
503	2.5150	662.867066	1405.695153	-11.524887	704.817531	1446.434833	-337.664524	631.388559	1579.558931	-172.223483	630.076867	1392.296895	-191.021495	571.781488	1138.458744	67.749086	753.656733	978.770507	-66.961864	596.539827	1210.685475	-528.816651	768.568160	950.999127	-466.560148	65.778408	1409.369762	-246.153005	275.023627	1385.628474	-444.163368	274.078298	1360.392760	-44.669154	292.041189	1310.886410	-414.975158	293.703641	1288.271501	-84.145049	121.544689	1479.464280	-215.482502	118.668810	1470.806217	-286.104364	204.916710	1239.376488	-35.875973	140.378552	1264.204806	-458.445687	280.556278	1113.074122	-42.569828	342.305978	1050.384994	-59.384336	363.126314	967.211588	-79.486056	371.945779	1069.477829	-71.685330	414.421121	872.918400	-104.231941	395.966764	853.451458	-227.684346	373.172862	713.734517	-83.206837	373.149603	627.423921	-100.860263	332.321298	549.829091	-97.993412	393.044461	624.957445	-134.847261	288.920442	417.411656	-107.344756	224.419585	390.528735	-151.449224	512.110128	380.546366	-149.418045	445.246022	348.779539	-78.803021	193.393436	1119.727208	-475.432182	241.326581	1049.636036	-472.616545	276.577556	1060.675324	-469.073790	247.706288	960.182519	-468.389560	287.422591	816.602260	-445.309570	304.524144	807.949343	-318.623296	35.296354	461.580290	-425.551944	-30.235779	456.025864	-385.756641	102.949091	295.830863	-450.725002	213.658029	709.908745	-467.711823	187.073595	630.298910	-452.557846	122.347521	570.281252	-449.165542	213.687835	616.343302	-427.983777	194.628322	258.861049	-386.824859	-177.441263	971.991070	-169.743813	-18.024944	81.390640	-460.791645	-18.039753	81.095582	-61.894524	
504	2.5200	663.628288	1404.457915	-11.640405	705.058562	1445.926414	-338.098502	632.504262	1578.573250	-171.912149	631.002930	1391.390395	-191.190338	571.401503	1137.670599	67.599055	753.652269	978.732110	-66.762487	596.092228	1210.539439	-529.162254	768.165990	950.901348	-467.363755	67.553681	1407.335788	-245.393566	276.266780	1385.277492	-443.602463	275.882119	1358.261685	-44.025417	293.510995	1309.862311	-414.587283	295.770627	1286.213985	-83.916415	123.098552	1477.822990	-214.727729	119.886577	1469.492567	-284.745961	206.183972	1237.138549	-35.581304	142.452909	1263.896688	-458.047316	280.724407	1110.234140	-42.038724	341.892870	1046.948557	-59.025945	361.933018	963.588073	-79.095594	371.627922	1065.732699	-71.488129	412.482187	868.922326	-104.142821	393.180741	849.844613	-227.375724	371.698623	709.626062	-83.071844	372.234793	623.314889	-100.799630	331.887099	545.370400	-97.879374	392.066801	620.878562	-134.921346	288.979162	412.754429	-107.269519	224.677267	385.859291	-151.485712	512.397887	376.222278	-149.323727	445.584619	344.342688	-78.733639	197.953929	1119.831661	-474.840663	247.050272	1050.457820	-472.112743	282.074666	1062.006716	-468.111020	254.781296	961.093502	-468.614711	296.054713	817.629589	-445.347103	311.099712	808.631875	-317.926781	38.003424	466.556815	-425.821615	-27.695004	461.958692	-385.841253	103.107795	299.601235	-450.544568	221.081582	711.705933	-467.726353	193.013761	632.606893	-452.373989	127.252409	573.783519	-449.263671	219.264798	618.324082	-427.647516	194.066148	261.133992	-386.860239	-177.614479	971.489010	-170.760378	-18.010762	81.396667	-460.776956	-18.024667	81.091636	-61.886411	
505	2.5250	664.351434	1403.327859	-11.687839	705.190160	1445.519132	-338.649274	633.463177	1577.792124	-171.878020	631.908134	1390.609678	-191.345653	571.043887	1136.780729	67.437925	753.668980	978.702207	-66.527026	595.704791	1210.386364	-529.530071	767.677535	950.795684	-468.069844	70.112188	1404.373912	-245.717879	277.414337	1384.495388	-442.932823	277.709920	1355.747376	-43.463774	294.956727	1308.754589	-414.167708	297.946091	1284.001696	-83.885456	124.398261	1475.943261	-214.049385	120.940111	1467.770843	-283.352284	207.519092	1234.647614	-35.338389	144.686670	1263.185686	-457.663343	281.000473	1107.054125	-41.592991	341.538447	1043.304848	-58.566120	360.851040	959.755609	-78.712060	371.416803	1061.808100	-71.163801	410.675142	864.768385	-103.861116	390.949251	846.184987	-227.364233	370.250046	705.370804	-82.806504	371.299170	619.082169	-100.630354	331.347657	540.919770	-97.847907	391.138717	616.883251	-134.673194	288.940949	408.027621	-107.286807	224.829202	380.949955	-151.453278	512.622335	371.922474	-149.231532	445.818867	339.861671	-78.666537	202.705134	1119.694704	-474.370357	252.813622	1051.110392	-471.648340	287.645928	1063.156536	-467.196159	261.931072	961.884853	-468.907662	304.684151	818.584668	-445.464134	320.174430	809.458434	-318.506992	40.814269	471.646707	-426.034325	-25.060354	467.938147	-385.901510	103.257658	303.521542	-450.372163	228.485134	713.493188	-467.803728	198.992819	634.911219	-452.288841	132.206278	577.234209	-449.362247	224.824769	620.309087	-427.391046	193.598162	263.475849	-386.734857	-177.587884	971.495870	-170.837567	-18.026007	81.424549	-460.767503	-18.031141	81.088923	-61.881545	
